0
SECTION
2
HEADER
9
$INSUNITS
70
4
9
$ACADVER
1
AC1014
9
$HANDSEED
5
FFFF
0
ENDSEC
0
SECTION
2
TABLES
0
TABLE
2
VPORT
5
8
100
AcDbSymbolTable
0
ENDTAB
0
TABLE
2
LTYPE
5
5
100
AcDbSymbolTable
0
LTYPE
5
14
100
AcDbSymbolTableRecord
100
AcDbLinetypeTableRecord
2
BYBLOCK
70
0
0
LTYPE
5
15
100
AcDbSymbolTableRecord
100
AcDbLinetypeTableRecord
2
BYLAYER
70
0
0
ENDTAB
0
TABLE
2
LAYER
5
2
100
AcDbSymbolTable
70
2
0
LAYER
5
50
100
AcDbSymbolTableRecord
100
AcDbLayerTableRecord
2
0
70
0
6
CONTINUOUS
0
ENDTAB
0
TABLE
2
STYLE
5
3
100
AcDbSymbolTable
70
1
0
STYLE
5
11
100
AcDbSymbolTableRecord
100
AcDbTextStyleTableRecord
2
STANDARD
70
0
0
ENDTAB
0
TABLE
2
VIEW
5
6
100
AcDbSymbolTable
70
0
0
ENDTAB
0
TABLE
2
UCS
5
7
100
AcDbSymbolTable
70
0
0
ENDTAB
0
TABLE
2
APPID
5
9
100
AcDbSymbolTable
70
2
0
APPID
5
12
100
AcDbSymbolTableRecord
100
AcDbRegAppTableRecord
2
ACAD
70
0
0
ENDTAB
0
TABLE
2
DIMSTYLE
5
A
100
AcDbSymbolTable
70
1
0
ENDTAB
0
TABLE
2
BLOCK_RECORD
5
1
100
AcDbSymbolTable
70
1
0
BLOCK_RECORD
5
1F
100
AcDbSymbolTableRecord
100
AcDbBlockTableRecord
2
*MODEL_SPACE
0
BLOCK_RECORD
5
1B
100
AcDbSymbolTableRecord
100
AcDbBlockTableRecord
2
*PAPER_SPACE
0
ENDTAB
0
ENDSEC
0
SECTION
2
BLOCKS
0
BLOCK
5
20
100
AcDbEntity
100
AcDbBlockBegin
2
*MODEL_SPACE
0
ENDBLK
5
21
100
AcDbEntity
100
AcDbBlockEnd
0
BLOCK
5
1C
100
AcDbEntity
100
AcDbBlockBegin
2
*PAPER_SPACE
0
ENDBLK
5
1D
100
AcDbEntity
100
AcDbBlockEnd
0
ENDSEC
0
SECTION
2
ENTITIES
0
LWPOLYLINE
5
100
100
AcDbEntity
8
0
100
AcDbPolyline
90
8
70
1
43
0.0
10
159.44999999999999
20
-102.05000000000001
42
-0.41421356237304302
10
159.25
20
-102.25000000000001
10
145.65000000000001
20
-102.25000000000001
42
-0.414213562373069
10
145.44999999999999
20
-102.05000000000001
10
145.44999999999999
20
-88.449999999999989
42
-0.41421356237301699
10
145.64999999999998
20
-88.250000000000014
10
159.25
20
-88.250000000000014
42
-0.41421356237312101
10
159.44999999999999
20
-88.450000000000003
0
CIRCLE
5
101
100
AcDbEntity
8
0
100
AcDbCircle
10
184.5
20
-49
30
0
40
1.6000000000000014
0
LWPOLYLINE
5
102
100
AcDbEntity
8
0
100
AcDbPolyline
90
8
70
1
43
0.0
10
178.49999999999997
20
-102.05000000000001
42
-0.41421356237309503
10
178.29999999999998
20
-102.25000000000001
10
164.69999999999999
20
-102.25000000000001
42
-0.41421356237309503
10
164.5
20
-102.05000000000001
10
164.49999999999994
20
-88.449999999999989
42
-0.41421356237317308
10
164.70000000000002
20
-88.250000000000014
10
178.29999999999998
20
-88.249999999999972
42
-0.41421356237314705
10
178.49999999999997
20
-88.450000000000003
0
LWPOLYLINE
5
103
100
AcDbEntity
8
0
100
AcDbPolyline
90
8
70
1
43
0.0
10
121.34999999999999
20
-102.05000000000001
42
-0.41421356237309503
10
121.15000000000001
20
-102.25000000000001
10
107.55000000000001
20
-102.25000000000001
42
-0.414213562373069
10
107.34999999999999
20
-102.05000000000001
10
107.34999999999999
20
-88.449999999999989
42
-0.41421356237301699
10
107.54999999999998
20
-88.250000000000014
10
121.15000000000001
20
-88.250000000000014
42
-0.41421356237314705
10
121.34999999999999
20
-88.450000000000003
0
LWPOLYLINE
5
104
100
AcDbEntity
8
0
100
AcDbPolyline
90
8
70
1
43
0.0
10
107.54999999999998
20
-83.200000000000003
42
-0.41421356237304302
10
107.34999999999999
20
-83
10
107.34999999999999
20
-69.399999999999991
42
-0.41421356237314705
10
107.55000000000001
20
-69.200000000000003
10
121.14999999999998
20
-69.200000000000017
42
-0.41421356237313406
10
121.34999999999999
20
-69.400000000000006
10
121.34999999999999
20
-83
42
-0.41421356237309503
10
121.15000000000001
20
-83.200000000000003
0
LWPOLYLINE
5
105
100
AcDbEntity
8
0
100
AcDbPolyline
90
8
70
1
43
0.0
10
140.39999999999998
20
-121.10000000000002
42
-0.41421356237304302
10
140.19999999999999
20
-121.30000000000003
10
126.59999999999999
20
-121.30000000000003
42
-0.41421356237304302
10
126.40000000000001
20
-121.10000000000002
10
126.40000000000001
20
-107.5
42
-0.41421356237317308
10
126.60000000000002
20
-107.30000000000001
10
140.19999999999999
20
-107.30000000000001
42
-0.41421356237304302
10
140.39999999999998
20
-107.5
0
LWPOLYLINE
5
106
100
AcDbEntity
8
0
100
AcDbPolyline
90
8
70
1
43
0.0
10
159.44999999999999
20
-140.15000000000003
42
-0.41421356237309503
10
159.25
20
-140.35000000000002
10
145.65000000000001
20
-140.35000000000002
42
-0.41421356237312101
10
145.44999999999999
20
-140.15000000000003
10
145.44999999999999
20
-126.55000000000001
42
-0.41421356237317308
10
145.65000000000001
20
-126.35000000000002
10
159.25
20
-126.35000000000002
42
-0.414213562373069
10
159.44999999999999
20
-126.55000000000001
0
LWPOLYLINE
5
107
100
AcDbEntity
8
0
100
AcDbPolyline
90
8
70
1
43
0.0
10
178.49999999999994
20
-140.15000000000003
42
-0.41421356237314705
10
178.29999999999998
20
-140.35000000000002
10
164.69999999999999
20
-140.35000000000005
42
-0.41421356237314705
10
164.5
20
-140.15000000000003
10
164.50000000000003
20
-126.55000000000001
42
-0.41421356237301699
10
164.69999999999999
20
-126.35000000000002
10
178.29999999999998
20
-126.35000000000002
42
-0.41421356237309503
10
178.49999999999997
20
-126.55000000000001
0
LWPOLYLINE
5
108
100
AcDbEntity
8
0
100
AcDbPolyline
90
8
70
1
43
0.0
10
121.34999999999999
20
-140.15000000000003
42
-0.41421356237314705
10
121.15000000000001
20
-140.35000000000002
10
107.55000000000001
20
-140.35000000000002
42
-0.41421356237312101
10
107.34999999999999
20
-140.15000000000003
10
107.34999999999999
20
-126.55000000000001
42
-0.41421356237317308
10
107.55000000000001
20
-126.35000000000002
10
121.15000000000001
20
-126.35000000000002
42
-0.41421356237309503
10
121.34999999999999
20
-126.55000000000001
0
LWPOLYLINE
5
109
100
AcDbEntity
8
0
100
AcDbPolyline
90
8
70
1
43
0.0
10
121.34999999999999
20
-121.10000000000002
42
-0.41421356237309503
10
121.15000000000001
20
-121.30000000000003
10
107.55000000000001
20
-121.30000000000003
42
-0.414213562373069
10
107.34999999999999
20
-121.10000000000002
10
107.34999999999999
20
-107.5
42
-0.41421356237317308
10
107.55000000000001
20
-107.30000000000001
10
121.15000000000001
20
-107.30000000000001
42
-0.41421356237309503
10
121.34999999999999
20
-107.5
0
LWPOLYLINE
5
110
100
AcDbEntity
8
0
100
AcDbPolyline
90
8
70
1
43
0.0
10
140.39999999999998
20
-102.05000000000001
42
-0.41421356237304302
10
140.19999999999999
20
-102.25000000000001
10
126.59999999999999
20
-102.25000000000001
42
-0.41421356237304302
10
126.40000000000001
20
-102.05000000000001
10
126.40000000000001
20
-88.449999999999989
42
-0.41421356237301699
10
126.59999999999999
20
-88.250000000000014
10
140.19999999999999
20
-88.250000000000014
42
-0.41421356237309503
10
140.39999999999998
20
-88.450000000000003
0
LWPOLYLINE
5
111
100
AcDbEntity
8
0
100
AcDbPolyline
90
8
70
1
43
0.0
10
159.44999999999999
20
-121.10000000000002
42
-0.41421356237304302
10
159.25
20
-121.30000000000003
10
145.65000000000001
20
-121.30000000000003
42
-0.414213562373069
10
145.44999999999999
20
-121.10000000000002
10
145.44999999999999
20
-107.5
42
-0.41421356237317308
10
145.65000000000001
20
-107.30000000000001
10
159.25
20
-107.30000000000001
42
-0.414213562373069
10
159.44999999999999
20
-107.5
0
LWPOLYLINE
5
112
100
AcDbEntity
8
0
100
AcDbPolyline
90
8
70
1
43
0.0
10
140.39999999999998
20
-140.15000000000003
42
-0.41421356237309503
10
140.19999999999999
20
-140.35000000000002
10
126.59999999999999
20
-140.35000000000002
42
-0.41421356237309503
10
126.40000000000001
20
-140.15000000000003
10
126.40000000000001
20
-126.55000000000001
42
-0.41421356237317308
10
126.60000000000002
20
-126.35000000000002
10
140.19999999999999
20
-126.35000000000002
42
-0.41421356237304302
10
140.39999999999998
20
-126.55000000000001
0
LWPOLYLINE
5
113
100
AcDbEntity
8
0
100
AcDbPolyline
90
8
70
1
43
0.0
10
178.49999999999994
20
-83.000000000000028
42
-0.41421356237299095
10
178.29999999999998
20
-83.200000000000003
10
164.69999999999999
20
-83.200000000000003
42
-0.41421356237309503
10
164.5
20
-83
10
164.5
20
-69.399999999999991
42
-0.41421356237299095
10
164.69999999999999
20
-69.200000000000003
10
178.29999999999998
20
-69.199999999999989
42
-0.41421356237314705
10
178.49999999999997
20
-69.400000000000006
0
LWPOLYLINE
5
114
100
AcDbEntity
8
0
100
AcDbPolyline
90
8
70
1
43
0.0
10
159.44999999999999
20
-83.000000000000028
42
-0.41421356237314705
10
159.25
20
-83.200000000000003
10
145.65000000000001
20
-83.200000000000003
42
-0.414213562373069
10
145.44999999999999
20
-83
10
145.44999999999999
20
-69.399999999999991
42
-0.41421356237314705
10
145.65000000000001
20
-69.200000000000003
10
159.25
20
-69.200000000000003
42
-0.41421356237309503
10
159.44999999999999
20
-69.400000000000006
0
LWPOLYLINE
5
115
100
AcDbEntity
8
0
100
AcDbPolyline
90
8
70
1
43
0.0
10
140.39999999999998
20
-83
42
-0.41421356237304302
10
140.19999999999999
20
-83.200000000000003
10
126.59999999999999
20
-83.200000000000003
42
-0.41421356237304302
10
126.40000000000001
20
-83
10
126.40000000000001
20
-69.399999999999991
42
-0.41421356237314705
10
126.60000000000002
20
-69.200000000000003
10
140.19999999999999
20
-69.200000000000003
42
-0.41421356237305601
10
140.39999999999998
20
-69.400000000000006
0
LWPOLYLINE
5
116
100
AcDbEntity
8
0
100
AcDbPolyline
90
8
70
1
43
0.0
10
178.49999999999997
20
-121.10000000000002
42
-0.41421356237309503
10
178.29999999999998
20
-121.30000000000003
10
164.69999999999999
20
-121.30000000000003
42
-0.41421356237309503
10
164.5
20
-121.10000000000002
10
164.50000000000003
20
-107.5
42
-0.41421356237301699
10
164.69999999999999
20
-107.30000000000001
10
178.29999999999998
20
-107.30000000000001
42
-0.41421356237309503
10
178.49999999999997
20
-107.5
0
CIRCLE
5
117
100
AcDbEntity
8
0
100
AcDbCircle
10
101.5
20
-143
30
0
40
1.6000000000000014
0
CIRCLE
5
118
100
AcDbEntity
8
0
100
AcDbCircle
10
101.5
20
-49
30
0
40
1.6000000000000014
0
CIRCLE
5
119
100
AcDbEntity
8
0
100
AcDbCircle
10
184.5
20
-143
30
0
40
1.6000000000000014
0
LWPOLYLINE
5
120
100
AcDbEntity
8
0
100
AcDbPolyline
90
8
70
1
43
0.0
10
130
20
-63.500000000000014
42
-0.41421356237309764
10
129.00000000000003
20
-64.500000000000014
10
118
20
-64.500000000000014
42
-0.41421356237309764
10
117.00000000000001
20
-63.500000000000014
10
117.00000000000003
20
-50.500000000000007
42
-0.41421356237309764
10
118
20
-49.500000000000014
10
129.00000000000003
20
-49.5
42
-0.41421356237309764
10
130.00000000000003
20
-50.500000000000007
0
LWPOLYLINE
5
121
100
AcDbEntity
8
0
100
AcDbPolyline
90
8
70
1
43
0.0
10
169
20
-63.500000000000028
42
-0.41421356237309764
10
168
20
-64.500000000000014
10
157
20
-64.500000000000014
42
-0.41421356237309764
10
156
20
-63.500000000000014
10
156
20
-50.500000000000007
42
-0.41421356237309764
10
157
20
-49.500000000000014
10
167.99999999999997
20
-49.500000000000014
42
-0.41421356237310025
10
169
20
-50.500000000000007
0
LWPOLYLINE
5
122
100
AcDbEntity
8
0
100
AcDbPolyline
90
8
70
1
43
0.0
10
98.5
20
-49
42
-0.41421356237309503
10
101.5
20
-46
10
184.5
20
-46
42
-0.41421356237309503
10
187.5
20
-49
10
187.5
20
-143
42
-0.41421356237309503
10
184.5
20
-146
10
101.5
20
-146
42
-0.41421356237309503
10
98.500000000000014
20
-143
0
ENDSEC
0
SECTION
2
OBJECTS
0
DICTIONARY
5
C
100
AcDbDictionary
3
ACAD_GROUP
350
D
3
ACAD_MLINESTYLE
350
17
0
DICTIONARY
5
D
100
AcDbDictionary
0
DICTIONARY
5
1A
330
C
100
AcDbDictionary
0
DICTIONARY
5
17
100
AcDbDictionary
0
ENDSEC
0
EOF
